<?xml version="1.0" ?><!DOCTYPE svg  PUBLIC '-//W3C//DTD SVG 1.1//EN'  'http://www.w3.org/Graphics/SVG/1.1/DTD/svg11.dtd'><svg enable-background="new 0 0 512 512" id="Layer_1" version="1.1" viewBox="0 0 512 512" xml:space="preserve" xmlns="http://www.w3.org/2000/svg" xmlns:xlink="http://www.w3.org/1999/xlink"><g><path d="M504,257c0,67.8,0,135.6,0.1,203.5c0,4.1-1.2,6-5.1,7.5c-31.3,12.3-62.4,24.8-93.6,37.4   c-3.4,1.4-5.5,1-8.2-1.6c-72.5-70.6-145.1-141-217.6-211.6c-2.9-2.8-4.6-2.8-7.7-0.5c-43.2,33.1-86.5,66.1-129.7,99.1   c-2.1,1.6-3.6,2.1-6.2,0.7c-7.3-4-14.8-7.7-22.3-11.3c-2.8-1.3-3.9-2.9-3.9-6c0.1-78.2,0.1-156.3,0-234.5c0-3.1,1-4.7,3.9-6   c7.5-3.5,15-7.3,22.3-11.2c2.4-1.3,3.9-1.4,6.2,0.4c43.2,33.1,86.6,66,129.8,99.1c3.4,2.6,5.3,2.7,8.4-0.4   c53.9-52.7,107.9-105.3,161.9-157.9c18.5-18,37-36,55.4-54c2.1-2.1,3.9-2.8,6.9-1.6c31.6,12.9,63.2,25.6,94.9,38.1   c3.7,1.4,4.6,3.2,4.6,6.9C504,121.1,504,189,504,257C504,257,504,257,504,257z M383.8,162c-1.2,0.6-1.8,0.9-2.2,1.2   c-40.4,30.2-80.7,60.4-121.2,90.5c-3.8,2.9-2.6,3.9,0.3,6.1c36.6,27.5,73.1,55.1,109.7,82.5c4.3,3.2,8.2,7,13.4,9.5   C383.8,288.4,383.8,225.6,383.8,162z M54.3,313.4c1-0.4,1.4-0.5,1.6-0.7c19.9-18,39.7-36,59.6-53.8c2.8-2.5,0.9-3.5-0.8-4.9   c-19.2-17.2-38.5-34.3-57.7-51.5c-0.8-0.7-1.3-2.1-2.7-1.3C54.3,238.4,54.3,275.6,54.3,313.4z" fill="#68227A"/></g></svg>